# Blender v2.93.3 OBJ File: 'caja.blend'
# www.blender.org
mtllib revitatablets.mtl
o Cube
v -0.977289 -1.259865 -0.216694
v -1.022381 1.223557 -0.216694
v -0.977289 -1.259865 0.216694
v -1.022381 1.223557 0.216694
v 1.022381 -1.223557 -0.216694
v 0.977289 1.259865 -0.216694
v 1.022381 -1.223557 0.216694
v 0.977289 1.259865 0.216694
vt 0.814851 0.196175
vt 0.458326 0.198615
vt 0.458893 0.051041
vt 0.814039 0.051085
vt -0.000204 0.783723
vt -0.000134 0.195603
vt 0.348203 0.198287
vt 0.348480 0.781198
vt 0.458780 0.782123
vt 0.814503 0.781371
vt 0.816172 0.930671
vt 0.457612 0.928370
vt 0.923712 0.196030
vt 0.923810 0.781668
vn 0.0182 -0.9998 0.0000
vn 0.0000 0.0000 1.0000
vn 0.9998 0.0182 0.0000
vn -0.0182 0.9998 0.0000
vn -0.9998 -0.0182 0.0000
vn 0.0000 0.0000 -1.0000
usemtl Material
s off
f 1/1/1 5/2/1 7/3/1 3/4/1
f 4/5/2 3/6/2 7/7/2 8/8/2
f 8/8/3 7/7/3 5/2/3 6/9/3
f 6/9/4 2/10/4 4/11/4 8/12/4
f 2/10/5 1/1/5 3/13/5 4/14/5
f 6/9/6 5/2/6 1/1/6 2/10/6
