# Blender v2.93.3 OBJ File: 'revitashampoo.blend'
# www.blender.org
mtllib revitashampoo.mtl
o Cube
v 0.468255 -1.259865 0.320519
v 0.489850 1.223557 0.320386
v 0.467842 -1.259865 -0.326322
v 0.489438 1.223557 -0.326455
v -0.489438 -1.223557 0.326455
v -0.467842 1.259865 0.326322
v -0.489850 -1.223557 -0.320385
v -0.468255 1.259865 -0.320519
vt 0.772014 0.117585
vt 0.544095 0.117519
vt 0.551718 0.000247
vt 0.775188 -0.001791
vt 0.080556 0.631799
vt 0.078704 0.120359
vt 0.311434 0.118815
vt 0.311346 0.629204
vt 0.539685 0.624952
vt 0.769074 0.624543
vt 0.769362 0.785536
vt 0.538484 0.785187
vt 0.996325 0.118539
vt 0.995591 0.627867
vn -0.0379 -0.9993 0.0000
vn -0.0062 0.0000 -1.0000
vn -1.0000 0.0087 0.0006
vn 0.0379 0.9993 -0.0000
vn 1.0000 -0.0087 -0.0006
vn 0.0062 -0.0000 1.0000
usemtl Material
s off
f 1/1/1 5/2/1 7/3/1 3/4/1
f 4/5/2 3/6/2 7/7/2 8/8/2
f 8/8/3 7/7/3 5/2/3 6/9/3
f 6/9/4 2/10/4 4/11/4 8/12/4
f 2/10/5 1/1/5 3/13/5 4/14/5
f 6/9/6 5/2/6 1/1/6 2/10/6
