# Blender v2.93.3 OBJ File: 'revitaconditioner.blend'
# www.blender.org
mtllib revitaconditioner.mtl
o Cube
v 0.468255 -1.259865 0.320519
v 0.489850 1.223557 0.320386
v 0.467842 -1.259865 -0.326322
v 0.489438 1.223557 -0.326455
v -0.489438 -1.223557 0.326455
v -0.467842 1.259865 0.326322
v -0.489850 -1.223557 -0.320385
v -0.468255 1.259865 -0.320519
vt 0.767931 0.118705
vt 0.536512 0.118639
vt 0.555421 -0.000938
vt 0.756670 0.000580
vt 0.075000 0.628835
vt 0.075029 0.118007
vt 0.307759 0.119286
vt 0.306202 0.629204
vt 0.537352 0.626072
vt 0.768491 0.625664
vt 0.769362 0.785536
vt 0.538484 0.785187
vt 0.996325 0.118539
vt 0.995591 0.627867
vn -0.0379 -0.9993 0.0000
vn -0.0062 0.0000 -1.0000
vn -1.0000 0.0087 0.0006
vn 0.0379 0.9993 -0.0000
vn 1.0000 -0.0087 -0.0006
vn 0.0062 -0.0000 1.0000
usemtl Material
s off
f 1/1/1 5/2/1 7/3/1 3/4/1
f 4/5/2 3/6/2 7/7/2 8/8/2
f 8/8/3 7/7/3 5/2/3 6/9/3
f 6/9/4 2/10/4 4/11/4 8/12/4
f 2/10/5 1/1/5 3/13/5 4/14/5
f 6/9/6 5/2/6 1/1/6 2/10/6
