# Blender v2.93.3 OBJ File: 'caja.blend'
# www.blender.org
mtllib revitatablets2.mtl
o Cube
v 0.967723 -1.259865 0.256052
v 1.012778 1.223557 0.257876
v 0.985255 -1.259865 -0.176982
v 1.030310 1.223557 -0.175158
v -1.030310 -1.223557 0.175158
v -0.985255 1.259865 0.176982
v -1.012778 -1.223557 -0.257876
v -0.967723 1.259865 -0.256052
vt 0.813874 0.213491
vt 0.464186 0.212430
vt 0.458893 0.072492
vt 0.815015 0.068751
vt 0.000411 0.791672
vt 0.000641 0.213630
vt 0.350156 0.210905
vt 0.351556 0.791532
vt 0.461478 0.793661
vt 0.814503 0.788942
vt 0.814219 0.933195
vt 0.463471 0.932156
vt 0.921759 0.212434
vt 0.922834 0.787977
vn -0.0181 -0.9998 -0.0007
vn 0.0405 -0.0000 -0.9992
vn -0.9990 0.0182 -0.0404
vn 0.0181 0.9998 0.0007
vn 0.9990 -0.0182 0.0404
vn -0.0405 0.0000 0.9992
usemtl Material
s off
f 1/1/1 5/2/1 7/3/1 3/4/1
f 4/5/2 3/6/2 7/7/2 8/8/2
f 8/8/3 7/7/3 5/2/3 6/9/3
f 6/9/4 2/10/4 4/11/4 8/12/4
f 2/10/5 1/1/5 3/13/5 4/14/5
f 6/9/6 5/2/6 1/1/6 2/10/6
